<svg width="206" height="100" xmlns="http://www.w3.org/2000/svg" xmlns:xlink="http://www.w3.org/1999/xlink" overflow="hidden"><g transform="translate(-46 -399)"><path d="M247.149 419.752C225.327 402.493 192.637 401 192.637 401L182.636 411.657C155.212 402.121 115.37 411.657 115.37 411.657L105.369 401C105.369 401 72.6718 402.493 50.8565 419.752 48.2164 421.846 47.2915 425.203 48.5669 428.151 49.7751 430.959 51.8485 434.813 55.3687 439.417 62.8643 449.228 56.9276 492.688 56.9276 492.688 56.9276 492.688 58.807 506.992 81.1443 476.149 81.1443 476.149 78.8024 489.324 79.4289 489.888 80.0554 490.445 219.435 489.888 219.435 489.888L216.854 476.149C239.199 506.992 241.071 492.688 241.071 492.688 241.071 492.688 235.134 449.228 242.637 439.417 246.15 434.813 248.223 430.959 249.432 428.151 250.707 425.203 249.79 421.846 247.149 419.752ZM130.66 468.255C128.057 472.369 124.022 474.5 121.65 473.008 119.271 471.522 119.457 466.977 122.053 462.863 124.656 458.749 128.691 456.625 131.062 458.11 133.441 459.603 133.262 464.14 130.66 468.255ZM147.731 485.165C142.056 485.165 137.446 482.113 137.446 478.34 137.446 474.567 142.056 471.515 147.731 471.515 153.407 471.515 158.016 474.575 158.016 478.34 158.016 482.105 153.407 485.165 147.731 485.165ZM176.304 473.431C173.79 474.679 169.987 472.169 167.801 467.824 165.616 463.479 165.877 458.942 168.391 457.687 170.904 456.439 174.708 458.949 176.893 463.294 179.078 467.638 178.81 472.183 176.304 473.431Z" stroke="#000000" stroke-width="4" stroke-miterlimit="8" fill="#FFFFFF" fill-rule="evenodd"/></g></svg>