<?xml version="1.0" encoding="UTF-8"?><svg id="Layer_2" xmlns="http://www.w3.org/2000/svg" viewBox="0 0 885.77 524.25"><defs><style>.cls-1{fill:#000000;}</style></defs><g id="Layer_1-2"><g><path class="cls-1" d="M204.82,282.36c0,5.27-4.27,9.54-9.54,9.54h-53.71c-5.27,0-9.29-4.27-9.29-9.54v-64.26l-26.1,57.23h-7.53l-26.1-57.23v64.26c0,5.27-4.27,9.54-9.29,9.54H9.54c-5.27,0-9.54-4.27-9.54-9.54V150.58c0-5.02,4.27-9.29,9.54-9.29H63.25c4.02,0,7.28,2.76,8.79,6.28l30.37,66.52,30.37-66.52c1.51-3.51,4.77-6.28,8.79-6.28h53.71c5.27,0,9.54,4.27,9.54,9.29v131.78Z"/><path class="cls-1" d="M368.47,312.48c0,11.3-12.3,20.08-27.36,20.08h-90.86c-15.06,0-27.36-8.79-27.36-20.08v-7.53c0-4.02,3.26-7.53,7.53-7.53h45.18c4.27,0,7.53,3.51,7.53,7.53v3.51c0,7.78,5.52,14.06,12.55,14.06s12.55-6.28,12.55-14.06v-29.12h-57.98c-15.06,0-27.36-9.04-27.36-20.08v-80.32c0-4.27,3.26-7.53,7.53-7.53h45.18c4.27,0,7.53,3.26,7.53,7.53v73.54c0,8.03,5.52,14.31,12.55,14.31s12.55-6.28,12.55-14.31v-73.54c0-4.27,3.26-7.53,7.53-7.53h45.18c4.27,0,7.53,3.26,7.53,7.53v133.54Z"/><path class="cls-1" d="M563.49,210.32c0,13.8-15.31,25.1-34.14,25.1h-70.03v46.94c0,5.27-4.27,9.54-9.29,9.54h-53.97c-5.27,0-9.54-4.27-9.54-9.54V150.58c0-5.02,4.27-9.29,9.54-9.29h133.29c18.82,0,34.14,11.29,34.14,25.1v43.93Zm-72.29-39.66c0-4.27-6.28-7.53-13.8-7.53h-18.07v53.21h18.07c7.53,0,13.8-3.26,13.8-7.28v-38.4Z"/><path class="cls-1" d="M727.14,271.81c0,11.04-12.3,20.08-27.36,20.08h-90.86c-15.06,0-27.36-9.04-27.36-20.08v-80.32c0-11.04,12.3-20.08,27.36-20.08h90.86c15.06,0,27.36,9.04,27.36,20.08v23.85c0,11.04-12.3,20.08-27.36,20.08h-57.98v24.6c0,8.03,5.52,14.31,12.55,14.31s12.3-6.02,12.55-13.81c0-4.27,3.26-7.53,7.53-7.53h45.18c4.27,0,7.53,3.26,7.53,7.53v11.29Zm-60.24-51.46v-17.07c0-8.03-5.52-14.31-12.55-14.31s-12.55,6.28-12.55,14.31v17.07h25.1Z"/><path class="cls-1" d="M885.77,271.81c0,11.04-12.3,20.08-27.36,20.08h-85.84c-15.06,0-27.36-9.04-27.36-20.08v-115.96c0-4.27,3.26-7.53,7.53-7.53h45.18c4.27,0,7.53,3.26,7.53,7.53v15.81h57.23c4.02,0,7.53,3.26,7.53,7.53v6.02c0,4.02-3.51,7.53-7.53,7.53h-57.23v67.27c0,8.03,5.52,14.31,12.55,14.31s12.3-6.02,12.55-13.81v-46.44c0-4.27,3.26-7.53,7.53-7.53h40.16c4.27,0,7.53,3.26,7.53,7.53v57.73Z"/></g><path class="cls-1" d="M727.59,27.83c-22.88-39.03-29.11-29.85-39-15.45-2.72,3.96-16.63,24.36-16.63,24.36-4.27-2.18-14.91-3.86-25.07-3.67-7.24,0-19.05,1.71-23.43,3.67,0,0-13.9-20.4-16.62-24.36-9.9-14.4-16.12-23.58-39.01,15.45-10.94,18.67-28.11,54.19-40.64,100.08h241.05c-12.54-45.89-29.7-81.41-40.65-100.08Zm-107.95,80.88c-3.36,1.68-8.47-1.7-11.4-7.55-2.93-5.85-2.57-11.96,.79-13.65,3.37-1.68,8.47,1.7,11.4,7.55,2.93,5.85,2.58,11.97-.79,13.65Zm63.44-6.97c-3.48,5.54-8.89,8.41-12.08,6.4-3.18-2-2.94-8.12,.55-13.66,3.49-5.54,8.89-8.4,12.08-6.4,3.18,2.01,2.94,8.12-.55,13.66Z"/><path class="cls-1" d="M420.7,30.86c-29.26-23.24-73.09-25.25-73.09-25.25l-13.41,14.35c-36.77-12.84-90.19,0-90.19,0l-13.41-14.35s-43.84,2.01-73.09,25.25c-3.54,2.82-4.78,7.34-3.07,11.31,1.62,3.78,4.4,8.97,9.12,15.17,10.05,13.21,2.09,71.73,2.09,71.73,0,0,2.52,19.26,32.47-22.27,0,0-3.14,17.74-2.3,18.5,.84,.75,187.72,0,187.72,0l-3.46-18.5c29.96,41.53,32.47,22.27,32.47,22.27,0,0-7.96-58.52,2.1-71.73,4.71-6.2,7.49-11.39,9.11-15.17,1.71-3.97,.48-8.49-3.06-11.31Zm-156.19,65.31c-3.49,5.54-8.9,8.41-12.08,6.4-3.19-2-2.94-8.12,.54-13.66,3.49-5.54,8.9-8.4,12.08-6.4,3.19,2.01,2.95,8.12-.54,13.66Zm22.89,22.77c-7.61,0-13.79-4.11-13.79-9.19s6.18-9.19,13.79-9.19,13.79,4.12,13.79,9.19-6.18,9.19-13.79,9.19Zm38.31-15.8c-3.37,1.68-8.47-1.7-11.4-7.55-2.93-5.85-2.58-11.96,.79-13.65,3.37-1.68,8.47,1.7,11.4,7.55,2.93,5.85,2.57,11.97-.79,13.65Z"/><g><path class="cls-1" d="M770.96,314.81c-3.44,47.69-26.64,90.59-120.53,90.59-87.18,0-117.09-42.9-120.53-90.59h241.07Z"/><path class="cls-1" d="M656.88,509.63c-16.4,15.72-37.06,24.68-69.77-4.51-.62-.35-1.23-.82-1.82-1.41-17.44-17.57-19.8-23.7-13.67-35.59,6.29-12.19,15.58-14.28,26.6-10.25,11.03,4.02,3.58,21.15,4.48,24.77,.11,.43,.2,.86,.27,1.3,3.43,3.89,34.28,42.04,49.9-12.09,10.85-37.57-7.42-66.62-7.42-66.62l10.71-6.16-2.52-11.32,18.23,17.6,7.11,45.09c1.85,22.04-6.15,43.87-22.11,59.18Z"/></g><g><path class="cls-1" d="M408.03,343.98c-3.05,42.27-23.62,80.3-106.84,80.3-77.28,0-103.79-38.03-106.84-80.3h213.68Z"/><path class="cls-1" d="M297.06,413.19s-3.06,49.22-17.36,57.7c-25.79,15.3-42.38,11.74-45.96,13.28s-12.87,11.03,1.34,21.58c9.34,6.93,44.73,.84,64.02-18,21.96-21.45,19.02-51.32,20.43-74.55h-22.47Z"/></g></g></svg>