<svg width="195" height="74" xmlns="http://www.w3.org/2000/svg" xmlns:xlink="http://www.w3.org/1999/xlink" overflow="hidden"><g transform="translate(-969 -573)"><path d="M1112.58 614.913C1111.04 614.913 1109.84 616.272 1109.84 618.011L1109.84 621.706 1115.31 621.706 1115.31 618.011C1115.31 616.272 1114.11 614.913 1112.58 614.913ZM1102.68 611.111 1122.47 611.111C1125.76 611.111 1128.44 613.068 1128.44 615.458L1128.44 620.622C1128.44 623.012 1125.76 624.969 1122.47 624.969L1109.84 624.969 1109.84 630.295C1109.84 632.034 1111.04 633.393 1112.58 633.393 1114.11 633.393 1115.26 632.09 1115.31 630.403 1115.31 629.479 1116.02 628.773 1116.95 628.773L1126.8 628.773C1127.73 628.773 1128.44 629.479 1128.44 630.403L1128.44 632.848C1128.44 635.238 1125.76 637.195 1122.47 637.195L1102.68 637.195C1099.4 637.195 1096.72 635.238 1096.72 632.848L1096.72 615.458C1096.72 613.068 1099.4 611.111 1102.68 611.111ZM1020.21 611.111 1030.05 611.111C1030.98 611.111 1031.69 611.817 1031.69 612.741L1031.69 628.663C1031.69 630.401 1032.89 631.761 1034.43 631.761 1035.96 631.761 1037.16 630.401 1037.16 628.663L1037.16 612.741C1037.16 611.817 1037.87 611.111 1038.8 611.111L1048.65 611.111C1049.58 611.111 1050.29 611.817 1050.29 612.741L1050.29 641.653C1050.29 644.099 1047.61 646 1044.32 646L1024.53 646C1021.25 646 1018.57 644.097 1018.57 641.653L1018.57 640.022C1018.57 639.152 1019.28 638.392 1020.21 638.392L1030.05 638.392C1030.98 638.392 1031.69 639.152 1031.69 640.022L1031.69 640.782C1031.69 642.467 1032.89 643.826 1034.43 643.826 1035.96 643.826 1037.16 642.467 1037.16 640.782L1037.16 634.478 1024.53 634.478C1021.25 634.478 1018.57 632.521 1018.57 630.13L1018.57 612.741C1018.57 611.817 1019.28 611.111 1020.21 611.111ZM1070.08 609.318 1070.08 620.838 1074.02 620.838C1075.66 620.838 1077.03 620.132 1077.03 619.262L1077.03 610.948C1077.03 610.024 1075.66 609.318 1074.02 609.318ZM1134.01 606.112 1143.86 606.112C1144.79 606.112 1145.5 606.818 1145.5 607.742L1145.5 611.165 1157.97 611.165C1158.84 611.165 1159.61 611.871 1159.61 612.795L1159.61 614.099C1159.61 614.969 1158.84 615.729 1157.97 615.729L1145.5 615.729 1145.5 630.293C1145.5 632.031 1146.7 633.391 1148.23 633.391 1149.77 633.391 1150.91 632.088 1150.97 630.401L1150.97 620.347C1150.97 619.422 1151.68 618.716 1152.61 618.716L1161.36 618.716C1162.29 618.716 1163 619.422 1163 620.347L1163 632.845 1163 632.848C1163 635.238 1160.32 637.195 1157.04 637.195L1138.33 637.195C1135.05 637.195 1132.37 635.238 1132.37 632.848L1132.37 607.742C1132.37 606.818 1133.08 606.112 1134.01 606.112ZM1056.3 604.59 1085.34 604.59C1089.44 604.59 1092.78 607.034 1092.78 610.024L1092.78 619.535C1092.78 622.523 1089.44 624.969 1085.34 624.969L1070.08 624.969 1070.08 635.132C1070.08 636.273 1069.15 637.197 1068.06 637.197L1056.3 637.197C1055.15 637.197 1054.22 636.273 1054.22 635.132L1054.22 606.601C1054.22 605.514 1055.15 604.59 1056.3 604.59ZM972.079 604.59 983.781 604.59C984.657 604.59 985.368 605.187 985.697 605.949L992.314 620.351 998.931 605.949C999.26 605.19 999.971 604.59 1000.85 604.59L1012.55 604.59C1013.7 604.59 1014.63 605.514 1014.63 606.601L1014.63 635.132C1014.63 636.273 1013.7 637.197 1012.55 637.197L1000.85 637.197C999.698 637.197 998.822 636.273 998.822 635.132L998.822 621.219 993.135 633.61 991.495 633.61 985.808 621.219 985.808 635.132C985.808 636.273 984.878 637.197 983.784 637.197L972.079 637.197C970.93 637.197 970 636.273 970 635.132L970 606.601C970 605.514 970.93 604.59 972.079 604.59ZM1032.62 595.772C1030.96 595.772 1029.62 596.661 1029.62 597.761 1029.62 598.861 1030.96 599.751 1032.62 599.751 1034.28 599.751 1035.63 598.859 1035.63 597.761 1035.63 596.664 1034.28 595.772 1032.62 595.772ZM1118.36 592.935C1117.7 592.983 1116.89 593.556 1116.32 594.455 1115.56 595.655 1115.51 596.98 1116.2 597.413 1116.9 597.848 1118.08 597.227 1118.84 596.027 1119.6 594.828 1119.65 593.505 1118.96 593.07 1118.78 592.961 1118.58 592.919 1118.36 592.935ZM1103.31 592.87C1103.09 592.833 1102.88 592.855 1102.7 592.946 1101.97 593.312 1101.89 594.635 1102.53 595.902 1103.17 597.168 1104.28 597.9 1105.01 597.536 1105.75 597.172 1105.82 595.847 1105.19 594.581 1104.71 593.631 1103.96 592.982 1103.31 592.87ZM1027.16 591.729C1026.5 591.777 1025.69 592.35 1025.12 593.249 1024.36 594.449 1024.31 595.774 1025 596.207 1025.69 596.642 1026.87 596.021 1027.63 594.821 1028.39 593.622 1028.45 592.299 1027.75 591.864 1027.58 591.756 1027.37 591.713 1027.16 591.729ZM1039.27 591.664C1039.05 591.627 1038.84 591.649 1038.66 591.74 1037.92 592.106 1037.85 593.429 1038.48 594.696 1039.12 595.962 1040.23 596.694 1040.97 596.33 1041.7 595.967 1041.78 594.642 1041.14 593.375 1040.66 592.425 1039.92 591.776 1039.27 591.664ZM1020.25 575.215 1023.17 578.322C1023.17 578.322 1034.81 575.542 1042.82 578.322L1045.74 575.215C1045.74 575.215 1055.29 575.65 1061.67 580.682 1062.44 581.292 1062.71 582.271 1062.33 583.13 1061.98 583.949 1061.37 585.072 1060.35 586.414 1058.16 589.274 1059.89 601.944 1059.89 601.944 1059.89 601.944 1059.34 606.114 1052.82 597.123L1053.57 601.128C1053.57 601.128 1012.85 601.29 1012.67 601.128 1012.48 600.963 1013.17 597.123 1013.17 597.123 1006.64 606.114 1006.09 601.944 1006.09 601.944 1006.09 601.944 1007.83 589.274 1005.64 586.414 1004.61 585.072 1004 583.949 1003.65 583.13 1003.28 582.271 1003.55 581.292 1004.32 580.682 1010.69 575.65 1020.25 575.215 1020.25 575.215ZM1099.04 574.015C1100.27 573.845 1101.15 575.122 1102.22 576.681 1102.82 577.538 1105.85 581.955 1105.85 581.955 1106.8 581.53 1109.37 581.16 1110.95 581.16 1113.16 581.119 1115.48 581.483 1116.41 581.955 1116.41 581.955 1119.44 577.538 1120.04 576.681 1122.19 573.563 1123.55 571.576 1128.53 580.026 1130.92 584.068 1134.66 591.758 1137.39 601.693L1084.87 601.693C1087.6 591.758 1091.34 584.068 1093.72 580.026 1096.22 575.801 1097.8 574.185 1099.04 574.015Z" fill="#000000" fill-rule="evenodd"/></g></svg>